<mxfile host="app.diagrams.net" modified="2024-03-06T10:02:43.137Z" agent="Mozilla/5.0 (X11; Ubuntu; Linux x86_64; rv:123.0) Gecko/20100101 Firefox/123.0" etag="09NJc_WIUbpM5nvUkm4x" version="23.1.5" type="github" pages="3">
  <diagram id="DIjUIADO7bKs8aOYrenK" name="MCD">
    <mxGraphModel dx="1330" dy="926" grid="1" gridSize="10" guides="1" tooltips="1" connect="1" arrows="1" fold="1" page="1" pageScale="1" pageWidth="827" pageHeight="1169" background="none" math="0" shadow="0">
      <root>
        <mxCell id="0" />
        <mxCell id="1" parent="0" />
        <mxCell id="JC6gIfYsf3pgo3DWzDb_-37" value="Passer" style="swimlane;fontStyle=1;align=center;verticalAlign=middle;childLayout=stackLayout;horizontal=1;startSize=30;horizontalStack=0;resizeParent=0;resizeLast=1;container=0;fontColor=#000000;collapsible=0;rounded=1;arcSize=30;strokeColor=#ff0000;fillColor=#ffffc0;swimlaneFillColor=#ffffc0;dropTarget=0;" parent="1" vertex="1">
          <mxGeometry x="392.5" y="680" width="135" height="63" as="geometry" />
        </mxCell>
        <mxCell id="JC6gIfYsf3pgo3DWzDb_-41" value="Rapporter" style="swimlane;fontStyle=1;align=center;verticalAlign=middle;childLayout=stackLayout;horizontal=1;startSize=30;horizontalStack=0;resizeParent=0;resizeLast=1;container=0;fontColor=#000000;collapsible=0;rounded=1;arcSize=30;strokeColor=#ff0000;fillColor=#ffffc0;swimlaneFillColor=#ffffc0;dropTarget=0;" parent="1" vertex="1">
          <mxGeometry x="1250" y="1010" width="135" height="63" as="geometry" />
        </mxCell>
        <mxCell id="JC6gIfYsf3pgo3DWzDb_-42" value="LIvrer" style="swimlane;fontStyle=1;align=center;verticalAlign=middle;childLayout=stackLayout;horizontal=1;startSize=30;horizontalStack=0;resizeParent=0;resizeLast=1;container=0;fontColor=#000000;collapsible=0;rounded=1;arcSize=30;strokeColor=#ff0000;fillColor=#ffffc0;swimlaneFillColor=#ffffc0;dropTarget=0;" parent="1" vertex="1">
          <mxGeometry x="500" y="1030" width="135" height="63" as="geometry" />
        </mxCell>
        <mxCell id="JC6gIfYsf3pgo3DWzDb_-44" value="Concerner" style="swimlane;fontStyle=1;align=center;verticalAlign=middle;childLayout=stackLayout;horizontal=1;startSize=30;horizontalStack=0;resizeParent=0;resizeLast=1;container=0;fontColor=#000000;collapsible=0;rounded=1;arcSize=30;strokeColor=#ff0000;fillColor=#ffffc0;swimlaneFillColor=#ffffc0;dropTarget=0;" parent="1" vertex="1">
          <mxGeometry x="829.5" y="420" width="136" height="63" as="geometry" />
        </mxCell>
        <mxCell id="JC6gIfYsf3pgo3DWzDb_-45" value="Correspond" style="swimlane;fontStyle=1;align=center;verticalAlign=middle;childLayout=stackLayout;horizontal=1;startSize=30;horizontalStack=0;resizeParent=0;resizeLast=1;container=0;fontColor=#000000;collapsible=0;rounded=1;arcSize=30;strokeColor=#ff0000;fillColor=#ffffc0;swimlaneFillColor=#ffffc0;dropTarget=0;" parent="1" vertex="1">
          <mxGeometry x="1050" y="420" width="135" height="63" as="geometry" />
        </mxCell>
        <mxCell id="JC6gIfYsf3pgo3DWzDb_-51" style="edgeStyle=none;rounded=0;orthogonalLoop=1;jettySize=auto;html=1;exitX=0.75;exitY=0;exitDx=0;exitDy=0;" parent="1" edge="1">
          <mxGeometry relative="1" as="geometry">
            <mxPoint x="842.5" y="950" as="sourcePoint" />
            <mxPoint x="842.5" y="950" as="targetPoint" />
          </mxGeometry>
        </mxCell>
        <mxCell id="JC6gIfYsf3pgo3DWzDb_-69" value="1, n" style="edgeStyle=none;html=1;endArrow=none;verticalAlign=bottom;rounded=0;exitX=1;exitY=0.75;exitDx=0;exitDy=0;exitPerimeter=0;entryX=0;entryY=0.5;entryDx=0;entryDy=0;" parent="1" source="UbAvxkf5t5Z6hnBbH8H3-1" target="UbAvxkf5t5Z6hnBbH8H3-2" edge="1">
          <mxGeometry width="160" relative="1" as="geometry">
            <mxPoint x="310" y="240.5" as="sourcePoint" />
            <mxPoint x="510" y="259" as="targetPoint" />
            <Array as="points" />
          </mxGeometry>
        </mxCell>
        <mxCell id="JC6gIfYsf3pgo3DWzDb_-80" value="" style="edgeStyle=none;html=1;endArrow=none;verticalAlign=bottom;rounded=0;entryX=0.5;entryY=1;entryDx=0;entryDy=0;exitX=0.5;exitY=1;exitDx=0;exitDy=0;" parent="1" source="JC6gIfYsf3pgo3DWzDb_-37" target="COaV6PyDey15cjgYEDcC-1" edge="1">
          <mxGeometry width="160" relative="1" as="geometry">
            <mxPoint x="480" y="840" as="sourcePoint" />
            <mxPoint x="200" y="740" as="targetPoint" />
            <Array as="points">
              <mxPoint x="460" y="830" />
              <mxPoint x="160" y="830" />
            </Array>
          </mxGeometry>
        </mxCell>
        <mxCell id="kaRqmWcuj6CkezoISRZH-1" value="1, n" style="edgeLabel;html=1;align=center;verticalAlign=middle;resizable=0;points=[];" parent="JC6gIfYsf3pgo3DWzDb_-80" vertex="1" connectable="0">
          <mxGeometry x="-0.0248" y="4" relative="1" as="geometry">
            <mxPoint as="offset" />
          </mxGeometry>
        </mxCell>
        <mxCell id="JC6gIfYsf3pgo3DWzDb_-87" value="" style="edgeStyle=none;html=1;endArrow=none;verticalAlign=bottom;rounded=0;entryX=0;entryY=0.5;entryDx=0;entryDy=0;exitX=0.5;exitY=0;exitDx=0;exitDy=0;" parent="1" source="JC6gIfYsf3pgo3DWzDb_-45" target="zfbG5k9YcYO4aeU3g0eO-1" edge="1">
          <mxGeometry width="160" relative="1" as="geometry">
            <mxPoint x="1118" y="340" as="sourcePoint" />
            <mxPoint x="1280" y="259" as="targetPoint" />
            <Array as="points">
              <mxPoint x="1118" y="260" />
            </Array>
          </mxGeometry>
        </mxCell>
        <mxCell id="JC6gIfYsf3pgo3DWzDb_-90" value="1, n" style="edgeLabel;html=1;align=center;verticalAlign=middle;resizable=0;points=[];" parent="JC6gIfYsf3pgo3DWzDb_-87" vertex="1" connectable="0">
          <mxGeometry x="0.0154" y="-5" relative="1" as="geometry">
            <mxPoint x="-1" as="offset" />
          </mxGeometry>
        </mxCell>
        <mxCell id="gmK4FBzJGxfhKCQX5miu-2" value="MCD" style="html=1;whiteSpace=wrap;" parent="1" vertex="1">
          <mxGeometry x="40" y="30" width="110" height="50" as="geometry" />
        </mxCell>
        <mxCell id="COaV6PyDey15cjgYEDcC-1" value="Client" style="swimlane;whiteSpace=wrap;html=1;" vertex="1" parent="1">
          <mxGeometry x="80" y="520" width="160" height="160" as="geometry" />
        </mxCell>
        <mxCell id="COaV6PyDey15cjgYEDcC-2" value="&lt;div align=&quot;left&quot;&gt;&lt;u&gt;Id_client&lt;/u&gt;&lt;br&gt;nom_client&lt;br&gt;prenom_client&lt;br&gt;code_postal_client&lt;br&gt;ville_client&lt;br&gt;tÃ©lephone&lt;/div&gt;&lt;div align=&quot;left&quot;&gt;&lt;br&gt;&lt;/div&gt;" style="text;html=1;align=left;verticalAlign=middle;resizable=0;points=[];autosize=1;strokeColor=none;fillColor=none;" vertex="1" parent="COaV6PyDey15cjgYEDcC-1">
          <mxGeometry x="20" y="40" width="120" height="110" as="geometry" />
        </mxCell>
        <mxCell id="dkk7STar7lWM6ge0uD2q-1" value="Facture" style="swimlane;whiteSpace=wrap;html=1;" vertex="1" parent="1">
          <mxGeometry x="822.5" y="40" width="150" height="130" as="geometry" />
        </mxCell>
        <mxCell id="dkk7STar7lWM6ge0uD2q-2" value="&lt;div align=&quot;left&quot;&gt;&lt;u&gt;Id_facture&lt;/u&gt;&lt;br&gt;num_facture&lt;br&gt;date_facture&lt;/div&gt;&lt;div align=&quot;left&quot;&gt;Montant&lt;br&gt;&lt;/div&gt;&lt;div align=&quot;left&quot;&gt;&lt;br&gt;&lt;/div&gt;" style="text;html=1;align=left;verticalAlign=middle;resizable=0;points=[];autosize=1;strokeColor=none;fillColor=none;" vertex="1" parent="dkk7STar7lWM6ge0uD2q-1">
          <mxGeometry x="25" y="30" width="90" height="90" as="geometry" />
        </mxCell>
        <mxCell id="zfbG5k9YcYO4aeU3g0eO-1" value="Vente" style="swimlane;whiteSpace=wrap;html=1;" vertex="1" parent="1">
          <mxGeometry x="1425" y="200" width="165" height="125" as="geometry" />
        </mxCell>
        <mxCell id="zfbG5k9YcYO4aeU3g0eO-2" value="&lt;div align=&quot;left&quot;&gt;&lt;u&gt;Id_vente&lt;/u&gt;&lt;br&gt;date_vente&lt;br&gt;num_ticket&lt;br&gt;code_barre_vente&lt;/div&gt;" style="text;html=1;align=left;verticalAlign=middle;resizable=0;points=[];autosize=1;strokeColor=none;fillColor=none;" vertex="1" parent="zfbG5k9YcYO4aeU3g0eO-1">
          <mxGeometry x="10" y="30" width="120" height="70" as="geometry" />
        </mxCell>
        <mxCell id="BQ621Y83t6ClM3htaglf-1" value="Article" style="swimlane;whiteSpace=wrap;html=1;" vertex="1" parent="1">
          <mxGeometry x="817.5" y="770" width="160" height="200" as="geometry" />
        </mxCell>
        <mxCell id="BQ621Y83t6ClM3htaglf-2" value="&lt;div align=&quot;left&quot;&gt;&lt;u&gt;Id_article&lt;/u&gt;&lt;br&gt;marque_article&lt;br&gt;type_article&lt;br&gt;nom_article&lt;br&gt;description_article&lt;br&gt;prix_vente_HT&lt;br&gt;taux_tva&lt;br&gt;prix_vente_TTC&lt;br&gt;code_barre&lt;/div&gt;" style="text;html=1;align=left;verticalAlign=middle;resizable=0;points=[];autosize=1;strokeColor=none;fillColor=none;" vertex="1" parent="BQ621Y83t6ClM3htaglf-1">
          <mxGeometry x="7.5" y="40" width="120" height="140" as="geometry" />
        </mxCell>
        <mxCell id="rvHGNSHCyS4Xt4hvChN3-1" value="Stock" style="swimlane;whiteSpace=wrap;html=1;startSize=23;" vertex="1" parent="1">
          <mxGeometry x="1430" y="740" width="160" height="120" as="geometry" />
        </mxCell>
        <mxCell id="rvHGNSHCyS4Xt4hvChN3-2" value="&lt;div align=&quot;left&quot;&gt;Id_stock&lt;br&gt;stock_min&lt;br&gt;stock_max&lt;br&gt;nombre_produits&lt;/div&gt;" style="text;html=1;align=left;verticalAlign=middle;resizable=0;points=[];autosize=1;strokeColor=none;fillColor=none;" vertex="1" parent="rvHGNSHCyS4Xt4hvChN3-1">
          <mxGeometry x="25" y="30" width="110" height="70" as="geometry" />
        </mxCell>
        <mxCell id="6tPLJbx7-CHZXmJJFv56-1" value="Fournisseur" style="swimlane;whiteSpace=wrap;html=1;" vertex="1" parent="1">
          <mxGeometry x="80" y="920" width="160" height="190" as="geometry" />
        </mxCell>
        <mxCell id="6tPLJbx7-CHZXmJJFv56-2" value="&lt;div align=&quot;left&quot;&gt;&lt;u&gt;Id_fournisseur&lt;/u&gt;&lt;br&gt;nom_fournisseur&lt;br&gt;adresse_fournisseur&lt;br&gt;ville_fournisseur&lt;br&gt;email_fournisseur&lt;br&gt;telephone_fournisseur&lt;br&gt;pays_fournisseur&lt;br&gt;tva_fournisseur&lt;/div&gt;" style="text;html=1;align=left;verticalAlign=middle;resizable=0;points=[];autosize=1;strokeColor=none;fillColor=none;" vertex="1" parent="6tPLJbx7-CHZXmJJFv56-1">
          <mxGeometry x="10" y="40" width="140" height="130" as="geometry" />
        </mxCell>
        <mxCell id="MVIiGXlLv7jQOtgQjOW6-1" value="Commande" style="swimlane;whiteSpace=wrap;html=1;" vertex="1" parent="1">
          <mxGeometry x="380" y="391.5" width="160" height="120" as="geometry" />
        </mxCell>
        <mxCell id="MVIiGXlLv7jQOtgQjOW6-2" value="&lt;div align=&quot;left&quot;&gt;&lt;u&gt;Id_commande&lt;/u&gt;&lt;br&gt;date_commande&lt;br&gt;numeros_commande&lt;br&gt;&lt;br&gt;&lt;/div&gt;&lt;div align=&quot;left&quot;&gt;&lt;br&gt;&lt;/div&gt;" style="text;html=1;align=left;verticalAlign=middle;resizable=0;points=[];autosize=1;strokeColor=none;fillColor=none;" vertex="1" parent="MVIiGXlLv7jQOtgQjOW6-1">
          <mxGeometry x="10" y="30" width="140" height="90" as="geometry" />
        </mxCell>
        <object placeholders="1" c4Name="Utilisateur" c4Type="Code_Ut" c4Description="Nom_Ut&#xa;Prenom_Ut&#xa;Fonction" label="&lt;font style=&quot;font-size: 16px&quot;&gt;&lt;b&gt;%c4Name%&lt;/b&gt;&lt;/font&gt;&lt;div&gt;[%c4Type%]&lt;/div&gt;&lt;br&gt;&lt;div&gt;&lt;font style=&quot;font-size: 11px&quot;&gt;&lt;font color=&quot;#cccccc&quot;&gt;%c4Description%&lt;/font&gt;&lt;/div&gt;" id="UbAvxkf5t5Z6hnBbH8H3-1">
          <mxCell style="html=1;fontSize=11;dashed=0;whiteSpace=wrap;fillColor=#083F75;strokeColor=#06315C;fontColor=#ffffff;shape=mxgraph.c4.person2;align=center;metaEdit=1;points=[[0.5,0,0],[1,0.5,0],[1,0.75,0],[0.75,1,0],[0.5,1,0],[0.25,1,0],[0,0.75,0],[0,0.5,0]];resizable=0;" vertex="1" parent="1">
            <mxGeometry x="60" y="124" width="200" height="180" as="geometry" />
          </mxCell>
        </object>
        <mxCell id="UbAvxkf5t5Z6hnBbH8H3-2" value="Etablir" style="swimlane;fontStyle=1;align=center;verticalAlign=middle;childLayout=stackLayout;horizontal=1;startSize=30;horizontalStack=0;resizeParent=0;resizeLast=1;container=0;fontColor=#000000;collapsible=0;rounded=1;arcSize=30;strokeColor=#ff0000;fillColor=#ffffc0;swimlaneFillColor=#ffffc0;dropTarget=0;" vertex="1" parent="1">
          <mxGeometry x="527.5" y="227.5" width="135" height="63" as="geometry" />
        </mxCell>
        <mxCell id="UbAvxkf5t5Z6hnBbH8H3-3" value="" style="edgeStyle=none;html=1;endArrow=none;verticalAlign=bottom;rounded=0;entryX=0;entryY=0.5;entryDx=0;entryDy=0;exitX=0.5;exitY=0;exitDx=0;exitDy=0;" edge="1" parent="1" source="UbAvxkf5t5Z6hnBbH8H3-2" target="dkk7STar7lWM6ge0uD2q-1">
          <mxGeometry width="160" relative="1" as="geometry">
            <mxPoint x="550" y="120" as="sourcePoint" />
            <mxPoint x="710" y="120" as="targetPoint" />
            <Array as="points">
              <mxPoint x="595" y="105" />
            </Array>
          </mxGeometry>
        </mxCell>
        <mxCell id="UbAvxkf5t5Z6hnBbH8H3-4" value="1, 1" style="edgeLabel;html=1;align=center;verticalAlign=middle;resizable=0;points=[];" vertex="1" connectable="0" parent="UbAvxkf5t5Z6hnBbH8H3-3">
          <mxGeometry x="0.3571" y="-1" relative="1" as="geometry">
            <mxPoint as="offset" />
          </mxGeometry>
        </mxCell>
        <mxCell id="UbAvxkf5t5Z6hnBbH8H3-8" value="1, 1" style="edgeStyle=none;html=1;endArrow=none;verticalAlign=bottom;rounded=0;exitX=1;exitY=0.25;exitDx=0;exitDy=0;entryX=0.5;entryY=1;entryDx=0;entryDy=0;" edge="1" parent="1" source="BQ621Y83t6ClM3htaglf-1" target="JC6gIfYsf3pgo3DWzDb_-45">
          <mxGeometry x="0.083" y="-2" width="160" relative="1" as="geometry">
            <mxPoint x="990" y="830" as="sourcePoint" />
            <mxPoint x="1118" y="500" as="targetPoint" />
            <Array as="points">
              <mxPoint x="1118" y="820" />
            </Array>
            <mxPoint as="offset" />
          </mxGeometry>
        </mxCell>
        <mxCell id="UbAvxkf5t5Z6hnBbH8H3-10" value="" style="edgeStyle=none;html=1;endArrow=none;verticalAlign=bottom;rounded=0;exitX=0.5;exitY=0;exitDx=0;exitDy=0;" edge="1" parent="1" source="JC6gIfYsf3pgo3DWzDb_-37" target="MVIiGXlLv7jQOtgQjOW6-2">
          <mxGeometry width="160" relative="1" as="geometry">
            <mxPoint x="360" y="620" as="sourcePoint" />
            <mxPoint x="460" y="540" as="targetPoint" />
          </mxGeometry>
        </mxCell>
        <mxCell id="UbAvxkf5t5Z6hnBbH8H3-11" value="1, 1" style="edgeLabel;html=1;align=center;verticalAlign=middle;resizable=0;points=[];" vertex="1" connectable="0" parent="UbAvxkf5t5Z6hnBbH8H3-10">
          <mxGeometry x="0.0501" y="-1" relative="1" as="geometry">
            <mxPoint as="offset" />
          </mxGeometry>
        </mxCell>
        <mxCell id="UbAvxkf5t5Z6hnBbH8H3-12" value="" style="edgeStyle=none;html=1;endArrow=none;verticalAlign=bottom;rounded=0;entryX=0.5;entryY=1;entryDx=0;entryDy=0;exitX=0.5;exitY=0;exitDx=0;exitDy=0;" edge="1" parent="1" source="JC6gIfYsf3pgo3DWzDb_-44" target="dkk7STar7lWM6ge0uD2q-1">
          <mxGeometry width="160" relative="1" as="geometry">
            <mxPoint x="770" y="300" as="sourcePoint" />
            <mxPoint x="930" y="300" as="targetPoint" />
          </mxGeometry>
        </mxCell>
        <mxCell id="UbAvxkf5t5Z6hnBbH8H3-13" value="1, n" style="edgeLabel;html=1;align=center;verticalAlign=middle;resizable=0;points=[];" vertex="1" connectable="0" parent="UbAvxkf5t5Z6hnBbH8H3-12">
          <mxGeometry x="0.0557" relative="1" as="geometry">
            <mxPoint x="1" as="offset" />
          </mxGeometry>
        </mxCell>
        <mxCell id="UbAvxkf5t5Z6hnBbH8H3-14" value="1, n" style="edgeStyle=none;html=1;endArrow=none;verticalAlign=bottom;rounded=0;exitX=1;exitY=0.5;exitDx=0;exitDy=0;entryX=0;entryY=0.5;entryDx=0;entryDy=0;" edge="1" parent="1" source="MVIiGXlLv7jQOtgQjOW6-1" target="JC6gIfYsf3pgo3DWzDb_-44">
          <mxGeometry width="160" relative="1" as="geometry">
            <mxPoint x="590" y="450" as="sourcePoint" />
            <mxPoint x="750" y="450" as="targetPoint" />
          </mxGeometry>
        </mxCell>
        <mxCell id="UbAvxkf5t5Z6hnBbH8H3-15" value="1, n" style="edgeStyle=none;html=1;endArrow=none;verticalAlign=bottom;rounded=0;exitX=0.5;exitY=1;exitDx=0;exitDy=0;entryX=0.5;entryY=0;entryDx=0;entryDy=0;" edge="1" parent="1" source="JC6gIfYsf3pgo3DWzDb_-44" target="BQ621Y83t6ClM3htaglf-1">
          <mxGeometry width="160" relative="1" as="geometry">
            <mxPoint x="860" y="540" as="sourcePoint" />
            <mxPoint x="910" y="760" as="targetPoint" />
          </mxGeometry>
        </mxCell>
        <mxCell id="UbAvxkf5t5Z6hnBbH8H3-17" value="" style="edgeStyle=none;html=1;endArrow=none;verticalAlign=bottom;rounded=0;exitX=1;exitY=0.75;exitDx=0;exitDy=0;entryX=0;entryY=0.5;entryDx=0;entryDy=0;" edge="1" parent="1" source="6tPLJbx7-CHZXmJJFv56-1" target="JC6gIfYsf3pgo3DWzDb_-42">
          <mxGeometry width="160" relative="1" as="geometry">
            <mxPoint x="280" y="1020" as="sourcePoint" />
            <mxPoint x="440" y="1020" as="targetPoint" />
          </mxGeometry>
        </mxCell>
        <mxCell id="8_nApOg9FvEikgno34YX-6" value="1, n" style="edgeLabel;html=1;align=center;verticalAlign=middle;resizable=0;points=[];" vertex="1" connectable="0" parent="UbAvxkf5t5Z6hnBbH8H3-17">
          <mxGeometry x="-0.0307" y="4" relative="1" as="geometry">
            <mxPoint as="offset" />
          </mxGeometry>
        </mxCell>
        <mxCell id="UbAvxkf5t5Z6hnBbH8H3-18" value="" style="edgeStyle=none;html=1;endArrow=none;verticalAlign=bottom;rounded=0;exitX=1;exitY=0.5;exitDx=0;exitDy=0;entryX=0.5;entryY=1;entryDx=0;entryDy=0;" edge="1" parent="1" source="JC6gIfYsf3pgo3DWzDb_-42" target="BQ621Y83t6ClM3htaglf-1">
          <mxGeometry width="160" relative="1" as="geometry">
            <mxPoint x="710" y="1070" as="sourcePoint" />
            <mxPoint x="870" y="1070" as="targetPoint" />
            <Array as="points">
              <mxPoint x="898" y="1062" />
            </Array>
          </mxGeometry>
        </mxCell>
        <mxCell id="8_nApOg9FvEikgno34YX-7" value="1, n" style="edgeLabel;html=1;align=center;verticalAlign=middle;resizable=0;points=[];" vertex="1" connectable="0" parent="UbAvxkf5t5Z6hnBbH8H3-18">
          <mxGeometry x="-0.2733" y="2" relative="1" as="geometry">
            <mxPoint x="1" as="offset" />
          </mxGeometry>
        </mxCell>
        <mxCell id="8_nApOg9FvEikgno34YX-2" value="" style="edgeStyle=none;html=1;endArrow=none;verticalAlign=bottom;rounded=0;exitX=1;exitY=0.75;exitDx=0;exitDy=0;entryX=0.5;entryY=0;entryDx=0;entryDy=0;" edge="1" parent="1" source="BQ621Y83t6ClM3htaglf-1" target="JC6gIfYsf3pgo3DWzDb_-41">
          <mxGeometry width="160" relative="1" as="geometry">
            <mxPoint x="1030" y="910" as="sourcePoint" />
            <mxPoint x="1190" y="910" as="targetPoint" />
            <Array as="points">
              <mxPoint x="1318" y="920" />
            </Array>
          </mxGeometry>
        </mxCell>
        <mxCell id="8_nApOg9FvEikgno34YX-3" value="1, 1" style="edgeLabel;html=1;align=center;verticalAlign=middle;resizable=0;points=[];" vertex="1" connectable="0" parent="8_nApOg9FvEikgno34YX-2">
          <mxGeometry x="-0.2265" y="2" relative="1" as="geometry">
            <mxPoint x="1" as="offset" />
          </mxGeometry>
        </mxCell>
        <mxCell id="8_nApOg9FvEikgno34YX-5" value="1, n" style="edgeStyle=none;html=1;endArrow=none;verticalAlign=bottom;rounded=0;exitX=1;exitY=0.5;exitDx=0;exitDy=0;entryX=0.5;entryY=1;entryDx=0;entryDy=0;" edge="1" parent="1" source="JC6gIfYsf3pgo3DWzDb_-41" target="rvHGNSHCyS4Xt4hvChN3-1">
          <mxGeometry width="160" relative="1" as="geometry">
            <mxPoint x="1420" y="1060" as="sourcePoint" />
            <mxPoint x="1580" y="1060" as="targetPoint" />
            <Array as="points">
              <mxPoint x="1510" y="1042" />
            </Array>
          </mxGeometry>
        </mxCell>
      </root>
    </mxGraphModel>
  </diagram>
  <diagram id="h2XjrdJ2uN1FQD4FfxIW" name="MLD">
    <mxGraphModel dx="665" dy="463" grid="1" gridSize="10" guides="1" tooltips="1" connect="1" arrows="1" fold="1" page="1" pageScale="1" pageWidth="827" pageHeight="1169" math="0" shadow="0">
      <root>
        <mxCell id="0" />
        <mxCell id="1" parent="0" />
        <mxCell id="RSL4IKZSK_nbLM9rZbOz-1" value="PiÃ¨ce_DetachÃ©e" style="swimlane;whiteSpace=wrap;html=1;" parent="1" vertex="1">
          <mxGeometry x="40" y="240" width="120" height="140" as="geometry" />
        </mxCell>
        <mxCell id="RSL4IKZSK_nbLM9rZbOz-7" value="&lt;div align=&quot;left&quot;&gt;Id : int&lt;br&gt;&lt;br&gt;ref : String&lt;br&gt;&lt;br&gt;prix : &lt;/div&gt;" style="text;html=1;align=left;verticalAlign=middle;resizable=0;points=[];autosize=1;strokeColor=none;fillColor=none;" parent="RSL4IKZSK_nbLM9rZbOz-1" vertex="1">
          <mxGeometry x="20" y="30" width="80" height="90" as="geometry" />
        </mxCell>
        <mxCell id="RSL4IKZSK_nbLM9rZbOz-2" value="Vertical Container" style="swimlane;whiteSpace=wrap;html=1;" parent="1" vertex="1">
          <mxGeometry x="290" y="235" width="160" height="150" as="geometry" />
        </mxCell>
        <mxCell id="RSL4IKZSK_nbLM9rZbOz-10" value="&lt;div align=&quot;left&quot;&gt;Id : int&lt;br&gt;&lt;br&gt;Id_PiÃ¨ce_DetachÃ©e&lt;br&gt;&lt;br&gt;Id_Demanche_Achat&lt;br&gt;&lt;br&gt;&lt;/div&gt;" style="text;html=1;align=left;verticalAlign=middle;resizable=0;points=[];autosize=1;strokeColor=none;fillColor=none;" parent="RSL4IKZSK_nbLM9rZbOz-2" vertex="1">
          <mxGeometry x="10" y="40" width="140" height="100" as="geometry" />
        </mxCell>
        <mxCell id="RSL4IKZSK_nbLM9rZbOz-3" value="Demande_Achat" style="swimlane;whiteSpace=wrap;html=1;" parent="1" vertex="1">
          <mxGeometry x="600" y="245" width="190" height="130" as="geometry" />
        </mxCell>
        <mxCell id="RSL4IKZSK_nbLM9rZbOz-17" value="&lt;div align=&quot;left&quot;&gt;Id : init&lt;/div&gt;&lt;div align=&quot;left&quot;&gt;&lt;br&gt;&lt;/div&gt;&lt;div align=&quot;left&quot;&gt;QunatitÃ©_piÃ¨ce_DetachÃ©e&lt;/div&gt;&lt;div align=&quot;left&quot;&gt;&lt;br&gt;&lt;/div&gt;&lt;div align=&quot;left&quot;&gt;date_demande : date &amp;amp; heure&lt;/div&gt;" style="text;html=1;align=left;verticalAlign=middle;resizable=0;points=[];autosize=1;strokeColor=none;fillColor=none;" parent="RSL4IKZSK_nbLM9rZbOz-3" vertex="1">
          <mxGeometry x="5" y="30" width="180" height="90" as="geometry" />
        </mxCell>
        <mxCell id="RSL4IKZSK_nbLM9rZbOz-4" value="PiÃ¨ce DetachÃ©e" style="swimlane;whiteSpace=wrap;html=1;" parent="1" vertex="1">
          <mxGeometry x="40" y="645" width="120" height="130" as="geometry" />
        </mxCell>
        <mxCell id="RSL4IKZSK_nbLM9rZbOz-11" value="&lt;div align=&quot;left&quot;&gt;Id : int&lt;br&gt;&lt;br&gt;ref : String&lt;br&gt;&lt;br&gt;prix : &lt;/div&gt;" style="text;html=1;align=left;verticalAlign=middle;resizable=0;points=[];autosize=1;strokeColor=none;fillColor=none;" parent="RSL4IKZSK_nbLM9rZbOz-4" vertex="1">
          <mxGeometry x="20" y="30" width="80" height="90" as="geometry" />
        </mxCell>
        <mxCell id="RSL4IKZSK_nbLM9rZbOz-5" value="Join_piÃ¨ce_Demande" style="swimlane;whiteSpace=wrap;html=1;" parent="1" vertex="1">
          <mxGeometry x="319" y="635" width="190" height="150" as="geometry" />
        </mxCell>
        <mxCell id="RSL4IKZSK_nbLM9rZbOz-8" value="&lt;div align=&quot;left&quot;&gt;Id : int&lt;br&gt;&lt;br&gt;Id_PiÃ¨ce_DetachÃ©e&lt;br&gt;&lt;br&gt;Id_Demanche_Achat&lt;br&gt;&lt;br&gt;QuantitÃ©_PiÃ¨ce_DetachÃ©e&lt;/div&gt;" style="text;html=1;align=left;verticalAlign=middle;resizable=0;points=[];autosize=1;strokeColor=none;fillColor=none;" parent="RSL4IKZSK_nbLM9rZbOz-5" vertex="1">
          <mxGeometry x="15" y="30" width="160" height="110" as="geometry" />
        </mxCell>
        <mxCell id="RSL4IKZSK_nbLM9rZbOz-6" value="Demande_Achat" style="swimlane;whiteSpace=wrap;html=1;startSize=23;" parent="1" vertex="1">
          <mxGeometry x="610" y="660" width="190" height="100" as="geometry" />
        </mxCell>
        <mxCell id="RSL4IKZSK_nbLM9rZbOz-12" value="&lt;div align=&quot;left&quot;&gt;Id : init&lt;br&gt;&lt;br&gt;date_demande : date &amp;amp; heure&lt;/div&gt;" style="text;html=1;align=left;verticalAlign=middle;resizable=0;points=[];autosize=1;strokeColor=none;fillColor=none;" parent="RSL4IKZSK_nbLM9rZbOz-6" vertex="1">
          <mxGeometry x="5" y="30" width="180" height="60" as="geometry" />
        </mxCell>
        <mxCell id="RSL4IKZSK_nbLM9rZbOz-13" value="&lt;b&gt;La quantitÃ© de piÃ¨ces est donnÃ©e dans la table de jointure&lt;/b&gt;" style="text;html=1;align=center;verticalAlign=middle;resizable=0;points=[];autosize=1;strokeColor=none;fillColor=none;" parent="1" vertex="1">
          <mxGeometry x="200" y="530" width="350" height="30" as="geometry" />
        </mxCell>
        <mxCell id="RSL4IKZSK_nbLM9rZbOz-14" value="" style="edgeStyle=none;html=1;endArrow=none;verticalAlign=bottom;rounded=0;exitX=1;exitY=0.5;exitDx=0;exitDy=0;entryX=0;entryY=0.5;entryDx=0;entryDy=0;" parent="1" source="RSL4IKZSK_nbLM9rZbOz-4" target="RSL4IKZSK_nbLM9rZbOz-5" edge="1">
          <mxGeometry width="160" relative="1" as="geometry">
            <mxPoint x="170" y="820" as="sourcePoint" />
            <mxPoint x="330" y="715" as="targetPoint" />
          </mxGeometry>
        </mxCell>
        <mxCell id="RSL4IKZSK_nbLM9rZbOz-15" value="" style="edgeStyle=none;html=1;endArrow=none;verticalAlign=bottom;rounded=0;entryX=0;entryY=0.5;entryDx=0;entryDy=0;exitX=1;exitY=0.5;exitDx=0;exitDy=0;" parent="1" source="RSL4IKZSK_nbLM9rZbOz-5" target="RSL4IKZSK_nbLM9rZbOz-6" edge="1">
          <mxGeometry width="160" relative="1" as="geometry">
            <mxPoint x="480" y="820" as="sourcePoint" />
            <mxPoint x="640" y="820" as="targetPoint" />
          </mxGeometry>
        </mxCell>
        <mxCell id="RSL4IKZSK_nbLM9rZbOz-16" value="&lt;b&gt;La quantitÃ© de piÃ¨ces est donnÃ©es dans la table demande d&#39;achat&lt;/b&gt;" style="text;html=1;align=center;verticalAlign=middle;resizable=0;points=[];autosize=1;strokeColor=none;fillColor=none;" parent="1" vertex="1">
          <mxGeometry x="265" y="130" width="400" height="30" as="geometry" />
        </mxCell>
        <mxCell id="RSL4IKZSK_nbLM9rZbOz-18" value="" style="edgeStyle=none;html=1;endArrow=none;verticalAlign=bottom;rounded=0;exitX=1;exitY=0.5;exitDx=0;exitDy=0;entryX=0;entryY=0.5;entryDx=0;entryDy=0;" parent="1" source="RSL4IKZSK_nbLM9rZbOz-2" target="RSL4IKZSK_nbLM9rZbOz-3" edge="1">
          <mxGeometry width="160" relative="1" as="geometry">
            <mxPoint x="150" y="90" as="sourcePoint" />
            <mxPoint x="600" y="325" as="targetPoint" />
          </mxGeometry>
        </mxCell>
        <mxCell id="RSL4IKZSK_nbLM9rZbOz-19" value="" style="edgeStyle=none;html=1;endArrow=none;verticalAlign=bottom;rounded=0;entryX=0;entryY=0.5;entryDx=0;entryDy=0;exitX=1;exitY=0.5;exitDx=0;exitDy=0;" parent="1" source="RSL4IKZSK_nbLM9rZbOz-1" target="RSL4IKZSK_nbLM9rZbOz-2" edge="1">
          <mxGeometry width="160" relative="1" as="geometry">
            <mxPoint x="110" y="430" as="sourcePoint" />
            <mxPoint x="270" y="430" as="targetPoint" />
          </mxGeometry>
        </mxCell>
      </root>
    </mxGraphModel>
  </diagram>
  <diagram id="MhPUVgyMq8jCe98VXjBx" name="MPD">
    <mxGraphModel dx="1330" dy="926" grid="1" gridSize="10" guides="1" tooltips="1" connect="1" arrows="1" fold="1" page="1" pageScale="1" pageWidth="827" pageHeight="1169" math="0" shadow="0">
      <root>
        <mxCell id="0" />
        <mxCell id="1" parent="0" />
      </root>
    </mxGraphModel>
  </diagram>
</mxfile>
